# xmcd
#
# Track frame offsets: 
#        150
#        2009
#        16594
#        33177
#        52680
#        64160
#        77659
#        95876
#        110225
#        126346
#        150865
#        169460
#        180434
#        196222
#
# Disc length: 2845 seconds
#
# Revision: 3
# Processed by: cddbd v1.5.2PL0 Copyright (c) Steve Scherf et al.
# Submitted via: ExactAudioCopy v0.99pb5
#
DISCID=a60b1b0e
DTITLE=Spooman - Brennsprit
DYEAR=2001
DGENRE=Rap CH
TTITLE0=Intro
TTITLE1=C.H.I.L.L.Y
TTITLE2=Duty Joint
TTITLE3=Burner feat. Samy Deluxe
TTITLE4=Achtung
TTITLE5=Aight
TTITLE6=Hot Dögs feat. Lexx
TTITLE7=Für Und Flamma
TTITLE8=Ei Liabi
TTITLE9=Ganjafeld feat. Gleis 2
TTITLE10=Overkill
TTITLE11=Wer Isch Dr Dog?
TTITLE12=Molotov feat. Bligg
TTITLE13=Schwöschter
EXTD=
EXTT0=
EXTT1=
EXTT2=
EXTT3=
EXTT4=
EXTT5=
EXTT6=
EXTT7=
EXTT8=
EXTT9=
EXTT10=
EXTT11=
EXTT12=
EXTT13=
PLAYORDER=
